<svg width="87" height="87" viewBox="0 0 87 87" fill="none" xmlns="http://www.w3.org/2000/svg">
<rect x="1.5" y="1.5" width="84" height="84" rx="42" stroke="#B41717" stroke-width="3"/>
<path d="M43.4999 46.7665L32.0665 58.1999C31.6388 58.6276 31.0943 58.8415 30.4332 58.8415C29.7721 58.8415 29.2276 58.6276 28.7999 58.1999C28.3721 57.7721 28.1582 57.2276 28.1582 56.5665C28.1582 55.9054 28.3721 55.361 28.7999 54.9332L40.2332 43.4999L28.7999 32.0665C28.3721 31.6388 28.1582 31.0943 28.1582 30.4332C28.1582 29.7721 28.3721 29.2276 28.7999 28.7999C29.2276 28.3721 29.7721 28.1582 30.4332 28.1582C31.0943 28.1582 31.6388 28.3721 32.0665 28.7999L43.4999 40.2332L54.9332 28.7999C55.361 28.3721 55.9054 28.1582 56.5665 28.1582C57.2276 28.1582 57.7721 28.3721 58.1999 28.7999C58.6276 29.2276 58.8415 29.7721 58.8415 30.4332C58.8415 31.0943 58.6276 31.6388 58.1999 32.0665L46.7665 43.4999L58.1999 54.9332C58.6276 55.361 58.8415 55.9054 58.8415 56.5665C58.8415 57.2276 58.6276 57.7721 58.1999 58.1999C57.7721 58.6276 57.2276 58.8415 56.5665 58.8415C55.9054 58.8415 55.361 58.6276 54.9332 58.1999L43.4999 46.7665Z" fill="#B41717"/>
</svg>
