<svg width="28" height="28" viewBox="0 0 28 28" fill="none" xmlns="http://www.w3.org/2000/svg">
<path d="M7 12.834H11.6667" stroke="#F6B623" stroke-width="2.33333" stroke-linecap="round" stroke-linejoin="round"/>
<path d="M9.33301 10.5V15.1667" stroke="#F6B623" stroke-width="2.33333" stroke-linecap="round" stroke-linejoin="round"/>
<path d="M17.5 14H17.5117" stroke="#F6B623" stroke-width="2.33333" stroke-linecap="round" stroke-linejoin="round"/>
<path d="M21 11.666H21.0117" stroke="#F6B623" stroke-width="2.33333" stroke-linecap="round" stroke-linejoin="round"/>
<path d="M20.2063 5.83398H7.79301C6.63833 5.83425 5.52476 6.26259 4.66755 7.03619C3.81034 7.80979 3.27036 8.87373 3.15201 10.0223C3.14501 10.083 3.14034 10.1402 3.13217 10.1997C3.03767 10.986 2.33301 16.866 2.33301 18.6673C2.33301 19.5956 2.70176 20.4858 3.35813 21.1422C4.01451 21.7986 4.90475 22.1673 5.83301 22.1673C6.99967 22.1673 7.58301 21.584 8.16634 21.0007L9.81601 19.351C10.2535 18.9134 10.8469 18.6674 11.4657 18.6673H16.5337C17.1525 18.6674 17.7459 18.9134 18.1833 19.351L19.833 21.0007C20.4163 21.584 20.9997 22.1673 22.1663 22.1673C23.0946 22.1673 23.9848 21.7986 24.6412 21.1422C25.2976 20.4858 25.6663 19.5956 25.6663 18.6673C25.6663 16.8648 24.9617 10.986 24.8672 10.1997C24.859 10.1413 24.8543 10.083 24.8473 10.0235C24.7293 8.87468 24.1894 7.81047 23.3322 7.03662C22.4749 6.26278 21.3612 5.83428 20.2063 5.83398Z" stroke="#F6B623" stroke-width="2.33333" stroke-linecap="round" stroke-linejoin="round"/>
</svg>
