<svg width="20" height="20" viewBox="0 0 20 20" fill="none" xmlns="http://www.w3.org/2000/svg">
<path d="M13.3333 2.5C15.6333 2.5 17.5 4.36667 17.5 6.66667V13.3333C17.5 15.6333 15.6333 17.5 13.3333 17.5H6.66667C4.36667 17.5 2.5 15.6333 2.5 13.3333V6.66667C2.5 4.36667 4.36667 2.5 6.66667 2.5H10H13.3333Z" stroke="#818898" stroke-width="1.5" stroke-linecap="round" stroke-linejoin="round"/>
<path d="M10.0003 6.66602C11.842 6.66602 13.3337 8.15768 13.3337 9.99935C13.3337 11.841 11.842 13.3327 10.0003 13.3327C8.15866 13.3327 6.66699 11.841 6.66699 9.99935C6.66699 8.15768 8.15866 6.66602 10.0003 6.66602Z" stroke="#818898" stroke-width="1.5" stroke-linecap="round" stroke-linejoin="round"/>
<path d="M14.167 7.08398C14.8573 7.08398 15.417 6.52434 15.417 5.83398C15.417 5.14363 14.8573 4.58398 14.167 4.58398C13.4766 4.58398 12.917 5.14363 12.917 5.83398C12.917 6.52434 13.4766 7.08398 14.167 7.08398Z" fill="#818898"/>
</svg>
