<svg width="24" height="26" viewBox="0 0 24 26" fill="none" xmlns="http://www.w3.org/2000/svg">
<path d="M2.33715 15.1691C2.11638 15.1698 1.89992 15.1079 1.71293 14.9905C1.52594 14.8732 1.37609 14.7051 1.28079 14.506C1.18549 14.3068 1.14866 14.0847 1.17457 13.8655C1.20047 13.6462 1.28806 13.4388 1.42715 13.2674L12.9771 1.36739C13.0638 1.26738 13.1819 1.1998 13.312 1.17574C13.4421 1.15168 13.5765 1.17257 13.6932 1.23498C13.8098 1.29738 13.9018 1.3976 13.954 1.51918C14.0062 1.64076 14.0156 1.77648 13.9805 1.90405L11.7405 8.92739C11.6744 9.10416 11.6522 9.29433 11.6758 9.48156C11.6994 9.6688 11.7681 9.84751 11.8759 10.0024C11.9838 10.1573 12.1276 10.2837 12.295 10.3707C12.4624 10.4578 12.6484 10.503 12.8371 10.5024H21.0038C21.2246 10.5016 21.441 10.5635 21.628 10.6809C21.815 10.7983 21.9649 10.9663 22.0602 11.1655C22.1555 11.3646 22.1923 11.5867 22.1664 11.806C22.1405 12.0252 22.0529 12.2326 21.9138 12.4041L10.3638 24.3041C10.2772 24.4041 10.1591 24.4716 10.029 24.4957C9.89889 24.5198 9.76447 24.4989 9.6478 24.4365C9.53112 24.3741 9.43913 24.2738 9.38692 24.1523C9.33472 24.0307 9.32539 23.895 9.36048 23.7674L11.6005 16.7441C11.6665 16.5673 11.6887 16.3771 11.6651 16.1899C11.6415 16.0026 11.5729 15.8239 11.465 15.6691C11.3572 15.5142 11.2134 15.3878 11.046 15.3007C10.8786 15.2136 10.6925 15.1684 10.5038 15.1691H2.33715Z" stroke="#F6B623" stroke-width="2.33333" stroke-linecap="round" stroke-linejoin="round"/>
</svg>
