<svg width="84" height="84" viewBox="0 0 84 84" fill="none" xmlns="http://www.w3.org/2000/svg">
<rect x="1.5" y="1.5" width="81" height="81" rx="40.5" stroke="#DC8F15" stroke-width="3"/>
<path d="M36.2831 49.35L56.0581 29.575C56.5248 29.1083 57.0692 28.875 57.6914 28.875C58.3137 28.875 58.8581 29.1083 59.3248 29.575C59.7914 30.0417 60.0248 30.5962 60.0248 31.2387C60.0248 31.8811 59.7914 32.4349 59.3248 32.9L37.9164 54.3667C37.4498 54.8333 36.9053 55.0667 36.2831 55.0667C35.6609 55.0667 35.1164 54.8333 34.6498 54.3667L24.6164 44.3333C24.1498 43.8667 23.9258 43.3129 23.9444 42.672C23.9631 42.0311 24.2065 41.4766 24.6748 41.0083C25.143 40.5401 25.6975 40.3068 26.3384 40.3083C26.9793 40.3099 27.5331 40.5432 27.9998 41.0083L36.2831 49.35Z" fill="#DC8F15"/>
</svg>
