<svg width="28" height="28" viewBox="0 0 28 28" fill="none" xmlns="http://www.w3.org/2000/svg">
<path d="M13.9997 25.6673C20.443 25.6673 25.6663 20.444 25.6663 14.0007C25.6663 7.55733 20.443 2.33398 13.9997 2.33398C7.55635 2.33398 2.33301 7.55733 2.33301 14.0007C2.33301 20.444 7.55635 25.6673 13.9997 25.6673Z" stroke="#F6B623" stroke-width="2.33333" stroke-linecap="round" stroke-linejoin="round"/>
<path d="M14 21C17.866 21 21 17.866 21 14C21 10.134 17.866 7 14 7C10.134 7 7 10.134 7 14C7 17.866 10.134 21 14 21Z" stroke="#F6B623" stroke-width="2.33333" stroke-linecap="round" stroke-linejoin="round"/>
<path d="M14.0003 16.3327C15.289 16.3327 16.3337 15.288 16.3337 13.9993C16.3337 12.7107 15.289 11.666 14.0003 11.666C12.7117 11.666 11.667 12.7107 11.667 13.9993C11.667 15.288 12.7117 16.3327 14.0003 16.3327Z" stroke="#F6B623" stroke-width="2.33333" stroke-linecap="round" stroke-linejoin="round"/>
</svg>
